HIERARCHY
ROOT hip
{
  OFFSET 0 0 0
  CHANNELS 6 Xposition Yposition Zposition Zrotation Yrotation Xrotation
  JOINT abdomen
  {
    OFFSET 0 20.6881 -0.73152
    CHANNELS 3 Zrotation Xrotation Yrotation
    JOINT chest
    {
      OFFSET 0 11.7043 -0.48768
      CHANNELS 3 Zrotation Xrotation Yrotation
      JOINT neck
      {
        OFFSET 0 22.1894 -2.19456
        CHANNELS 3 Zrotation Xrotation Yrotation
        JOINT head
        {
          OFFSET -0.24384 7.07133 1.2192
          CHANNELS 3 Zrotation Xrotation Yrotation
          JOINT leftEye
          {
            OFFSET 4.14528 8.04674 8.04672
            CHANNELS 3 Zrotation Xrotation Yrotation
            End Site
            {
              OFFSET 1 0 0
            }
          }
          JOINT rightEye
          {
            OFFSET -3.6576 8.04674 8.04672
            CHANNELS 3 Zrotation Xrotation Yrotation
            End Site
            {
              OFFSET 1 0 0
            }
          }
        }
      }
      JOINT rCollar
      {
        OFFSET -2.68224 19.2634 -4.8768
        CHANNELS 3 Zrotation Xrotation Yrotation
        JOINT rShldr
        {
          OFFSET -8.77824 -1.95073 1.46304
          CHANNELS 3 Zrotation Xrotation Yrotation
          JOINT rForeArm
          {
            OFFSET -28.1742 -1.7115 0.48768
            CHANNELS 3 Zrotation Xrotation Yrotation
            JOINT rHand
            {
              OFFSET -22.5879 0.773209 7.07136
              CHANNELS 3 Zrotation Xrotation Yrotation
              JOINT rThumb1
              {
                OFFSET -1.2192 -0.487915 3.41376
                CHANNELS 3 Zrotation Xrotation Yrotation
                JOINT rThumb2
                {
                  OFFSET -3.37035 -0.52449 3.41376
                  CHANNELS 3 Zrotation Xrotation Yrotation
                  End Site
                  {
                    OFFSET -1.78271 -1.18214 1.43049
                  }
                }
              }
              JOINT rIndex1
              {
                OFFSET -7.75947 0.938293 5.60832
                CHANNELS 3 Zrotation Xrotation Yrotation
                JOINT rIndex2
                {
                  OFFSET -2.54057 -0.884171 1.56538
                  CHANNELS 3 Zrotation Xrotation Yrotation
                  End Site
                  {
                    OFFSET -1.62519 -0.234802 1.16502
                  }
                }
              }
              JOINT rMid1
              {
                OFFSET -8.24714 1.18213 3.41376
                CHANNELS 3 Zrotation Xrotation Yrotation
                JOINT rMid2
                {
                  OFFSET -3.10165 -0.590103 1.0647
                  CHANNELS 3 Zrotation Xrotation Yrotation
                  End Site
                  {
                    OFFSET -2.48547 -0.328903 0.83742
                  }
                }
              }
              JOINT rRing1
              {
                OFFSET -8.82822 0.546677 1.51678
                CHANNELS 3 Zrotation Xrotation Yrotation
                JOINT rRing2
                {
                  OFFSET -2.60934 -0.819778 -0.0198488
                  CHANNELS 3 Zrotation Xrotation Yrotation
                  End Site
                  {
                    OFFSET -2.33842 -0.294052 0.168128
                  }
                }
              }
              JOINT rPinky1
              {
                OFFSET -8.27202 -0.0477905 -0.4584
                CHANNELS 3 Zrotation Xrotation Yrotation
                JOINT rPinky2
                {
                  OFFSET -1.82734 -0.647385 -0.700984
                  CHANNELS 3 Zrotation Xrotation Yrotation
                  End Site
                  {
                    OFFSET -1.69225 -0.51767 -0.607171
                  }
                }
              }
            }
          }
        }
      }
      JOINT lCollar
      {
        OFFSET 2.68224 19.2634 -4.8768
        CHANNELS 3 Zrotation Xrotation Yrotation
        JOINT lShldr
        {
          OFFSET 8.77824 -1.95073 1.46304
          CHANNELS 3 Zrotation Xrotation Yrotation
          JOINT lForeArm
          {
            OFFSET 28.1742 -1.7115 0.48768
            CHANNELS 3 Zrotation Xrotation Yrotation
            JOINT lHand
            {
              OFFSET 22.5879 0.773209 7.07136
              CHANNELS 3 Zrotation Xrotation Yrotation
              JOINT lThumb1
              {
                OFFSET 1.2192 -0.487915 3.41376
                CHANNELS 3 Zrotation Xrotation Yrotation
                JOINT lThumb2
                {
                  OFFSET 3.37035 -0.52449 3.41376
                  CHANNELS 3 Zrotation Xrotation Yrotation
                  End Site
                  {
                    OFFSET 1.78271 -1.18214 1.43049
                  }
                }
              }
              JOINT lIndex1
              {
                OFFSET 7.75947 0.938293 5.60832
                CHANNELS 3 Zrotation Xrotation Yrotation
                JOINT lIndex2
                {
                  OFFSET 2.54057 -0.884171 1.56538
                  CHANNELS 3 Zrotation Xrotation Yrotation
                  End Site
                  {
                    OFFSET 1.62519 -0.234802 1.16502
                  }
                }
              }
              JOINT lMid1
              {
                OFFSET 8.24714 1.18213 3.41376
                CHANNELS 3 Zrotation Xrotation Yrotation
                JOINT lMid2
                {
                  OFFSET 3.10165 -0.590103 1.0647
                  CHANNELS 3 Zrotation Xrotation Yrotation
                  End Site
                  {
                    OFFSET 2.48547 -0.328903 0.83742
                  }
                }
              }
              JOINT lRing1
              {
                OFFSET 8.82822 0.546677 1.51678
                CHANNELS 3 Zrotation Xrotation Yrotation
                JOINT lRing2
                {
                  OFFSET 2.60934 -0.819778 -0.0198488
                  CHANNELS 3 Zrotation Xrotation Yrotation
                  End Site
                  {
                    OFFSET 2.33842 -0.294052 0.168128
                  }
                }
              }
              JOINT lPinky1
              {
                OFFSET 8.27202 -0.0477905 -0.4584
                CHANNELS 3 Zrotation Xrotation Yrotation
                JOINT lPinky2
                {
                  OFFSET 1.82734 -0.647385 -0.700984
                  CHANNELS 3 Zrotation Xrotation Yrotation
                  End Site
                  {
                    OFFSET 1.69225 -0.51767 -0.607171
                  }
                }
              }
            }
          }
        }
      }
    }
  }
  JOINT rButtock
  {
    OFFSET -8.77824 4.35084 1.2192
    CHANNELS 3 Zrotation Xrotation Yrotation
    JOINT rThigh
    {
      OFFSET 0 -1.70687 -2.19456
      CHANNELS 3 Zrotation Xrotation Yrotation
      JOINT rShin
      {
        OFFSET 0 -36.8199 0.73152
        CHANNELS 3 Zrotation Xrotation Yrotation
        JOINT rFoot
        {
          OFFSET 0.73152 -45.1104 -5.12064
          CHANNELS 3 Zrotation Xrotation Yrotation
          End Site
          {
            OFFSET -1.1221 -3.69964 12.103
          }
        }
      }
    }
  }
  JOINT lButtock
  {
    OFFSET 8.77824 4.35084 1.2192
    CHANNELS 3 Zrotation Xrotation Yrotation
    JOINT lThigh
    {
      OFFSET 0 -1.70687 -2.19456
      CHANNELS 3 Zrotation Xrotation Yrotation
      JOINT lShin
      {
        OFFSET 0 -36.8199 0.73152
        CHANNELS 3 Zrotation Xrotation Yrotation
        JOINT lFoot
        {
          OFFSET -0.73152 -45.1104 -5.12064
          CHANNELS 3 Zrotation Xrotation Yrotation
          End Site
          {
            OFFSET 1.1221 -3.69964 12.103
          }
        }
      }
    }
  }
}
MOTION
Frames:	5
Frame Time:	0.00833333
-0.3536 57.472699999999996 -14.139199999999999 176.496945 -16.384961 -175.462179 -10.14927 7.133015 -124.747081 1.481592 5.565536 125.158857 -3.65305 36.25265 -169.664274 5.451637 47.091055 141.009947 0.003817 0.0 0.004751 0.003294 -0.0 -0.000864 -143.620795 38.23344 148.080636 -32.098715 5.539603 31.85432 4.3727 13.934531 -118.898847 171.489391 -19.243875 143.248126 -0.492066 0.484429 0.078166 -136.83333 -39.356195 118.32909 -151.353642 -17.158467 121.13266 -112.341258 49.279106 90.951964 -157.052076 3.992894 141.296478 -153.91599 19.912759 138.343376 -72.351015 72.974472 90.218267 -65.369619 83.071125 74.175551 17.867296 62.502026 12.930433 -148.897641 13.443728 -143.473016 9.65175 34.836149 -11.199365 104.847238 -6.611226 -138.650191 1.188134 2.165738 136.445842 174.488613 -3.921787 -142.840607 -88.928147 -50.831469 -37.599944 15.653756 -43.169706 30.228952 43.649321 38.803559 -34.059466 174.645846 -26.234193 -110.779822 39.288976 53.36619 -32.877664 -80.712294 -77.890919 -52.077513 145.117968 0.184965 179.187781 148.132557 -43.032365 170.607442 -6.951531 21.311147 -6.189523 121.053864 -38.024999 119.31541 179.980325 75.750186 0.016188 158.988209 6.141386 -86.104808 -85.992126 1.837375 -81.829266 81.306821 14.356046 -176.876376 0.000429 -0.000545 -0.000552 13.568922 0.843328 -86.510254 -60.288795 -2.19002 -97.953489 85.928937 65.134602 153.941286
-0.344 57.41270000000001 -14.158399999999999 176.5249 -16.480823 -175.450787 -12.181055 10.887763 1.829195 5.582485 -8.26645 -0.518189 -14.966544 25.503603 -71.876121 39.227448 3.790666 45.355312 -0.000759 0.0 -0.002966 -0.000118 -0.0 0.003644 3.623169 -61.421949 -12.829124 -145.05933 8.800472 -155.915081 66.59733 20.127304 -166.906129 -168.849408 36.7048 140.150741 71.831405 -48.263764 25.791344 -155.340634 -26.402744 127.362998 1.339239 -2.205177 -0.738359 -65.587971 48.440883 50.777825 -158.520619 -0.192756 142.143782 3.185766 0.183528 0.38384 -72.963735 -72.144329 -89.989552 -150.380985 26.333414 172.855872 -87.573386 -50.20703 -85.930301 -154.476066 38.594309 -147.308141 142.973277 39.431479 -147.389799 39.526619 -17.566178 -41.884012 -168.908177 -55.085477 89.126726 11.995243 4.207567 1.896879 5.433889 5.264907 -1.077448 179.921323 -76.098207 -99.055685 166.821054 -43.97369 -122.062897 -133.092211 -69.417493 -73.90384 165.289401 -21.385549 -144.900434 175.413402 -39.000081 -142.907831 145.119553 0.267915 179.212175 -11.580269 58.796276 1.661946 146.206599 15.404927 142.732525 -11.876332 28.177592 -4.332764 -179.988835 75.748453 -0.007639 157.803459 7.130639 0.0 24.436502 79.121554 88.060948 -3.499628 52.081959 -88.653855 179.77142 75.749642 0.176177 -139.2133 72.27734 52.767407 54.782251 -4.449019 0.628266 -100.764609 33.551108 -11.400301
-0.3372 57.356899999999996 -14.191 176.552741 -16.603904 -175.463114 -9.845225 7.651149 -112.044226 3.194702 5.061358 112.495477 4.808419 32.735331 139.236123 -28.596486 34.905926 -158.207361 0.002067 0.0 0.001704 0.002067 0.0 0.001704 -14.148468 43.061528 15.99659 -119.866033 13.705648 137.757932 149.522911 6.248319 -87.923672 -26.457095 53.555395 11.515526 -5.433703 5.264915 1.078036 -5.546776 6.639032 7.981666 -112.989359 31.442284 95.609113 -172.59915 -26.207652 115.844452 0.540646 -1.590103 -0.294006 2.941866 0.844145 0.086176 0.001216 0.063669 0.020278 10.282172 0.619727 0.011178 25.918567 79.093664 10.831833 14.368709 41.892459 7.286956 0.049304 0.292346 -0.065232 101.232101 -16.898391 -171.903533 68.158786 28.188411 110.015685 -158.268369 -66.288404 -135.01216 10.204266 9.661863 -2.404534 4.818559 5.78068 -10.065077 39.689104 37.281077 -30.58982 2.27585 13.284227 -0.837973 166.121214 -24.039481 -145.077249 163.840792 -6.234241 -143.120304 -0.001386 0.036391 -0.011155 154.237561 12.766246 -170.103676 -0.098373 0.258169 -0.092497 -36.626453 81.001268 0.0939 0.0 -0.000728 0.001787 -49.010192 -61.217187 -180.0 -68.45188 -41.74222 120.226996 -34.158513 -2.232683 3.621653 -0.002016 -6.9e-05 -0.003025 12.635258 1.751014 -0.137405 2.510208 50.057584 56.218869 -154.032338 1.057537 5.118804
-0.3232 57.3068 -14.219000000000001 176.560793 -16.696449 -175.468248 -9.666922 8.338139 -96.548815 5.064083 3.97292 97.035477 -7.716106 35.814174 -148.969377 20.732262 43.768582 115.210007 -0.001548 0.0 -0.002439 -0.001548 0.0 -0.002439 -0.049084 0.29234 0.06545 -123.739015 -5.955035 168.657871 2.849384 -6.016793 -119.081762 170.771029 -21.111749 143.009778 178.740039 -18.647378 89.060015 -77.691906 10.365471 23.924643 -0.329615 0.529389 0.185885 -177.875016 -34.33522 106.354601 153.669947 -76.484112 121.218949 10.142502 -21.566682 -1.30259 0.000221 0.022819 0.005679 -108.171198 76.260262 121.773822 -124.852985 -29.039288 -122.621964 9.782861 19.275135 3.152815 155.417301 -2.951429 -161.718549 56.109524 25.96245 -2.270976 174.671265 16.858753 78.544265 8.897726 -5.464356 3.339655 -82.305229 -50.135771 -32.955207 137.44774 16.569763 -102.372642 134.541009 10.541353 -112.294697 64.288865 56.305621 -45.538354 -0.327833 -0.961744 0.179745 -2.827668 1.183245 -0.134496 0.000329 0.022345 -0.008783 -11.568266 -36.415045 4.391842 -3.762475 10.729194 -3.419727 159.751018 55.52538 150.033139 179.959855 75.749847 0.030942 156.643822 5.519275 112.045591 82.24492 -13.891793 166.527137 28.807374 -26.35615 126.639877 179.959855 75.749847 0.030942 -138.743523 70.652481 137.087048 0.403296 -54.814473 -98.520348 72.002002 -56.692587 -3.514249
-0.3252 57.252199999999995 -14.2382 176.610859 -16.756029 -175.500999 -9.639519 8.457876 -97.271158 4.995288 4.068936 97.796634 4.714104 20.336263 62.789144 -30.420899 -9.929886 -93.106142 -0.003565 -0.0 0.003533 0.00214 0.0 0.002997 4.123279 -55.411409 -11.082686 39.148333 11.116027 -23.119745 -121.677504 -32.530278 92.91281 142.246448 -61.385648 122.526612 0.567826 -0.56152 -0.083498 0.44948 -0.723741 -0.758469 -155.193082 -24.300244 122.142417 16.117143 -8.681276 -10.696064 -161.152458 -8.160711 143.465536 -5.110373 21.250463 4.816165 -145.117692 0.185184 -179.187038 -154.167861 -12.523551 -177.504297 -87.575089 -50.206933 -85.92967 -10.158933 -26.552444 -12.984734 0.048489 0.292406 -0.065292 -71.011285 19.069046 -8.597469 0.660276 3.77958 -104.254819 8.04752 -8.348433 3.672464 176.598026 -14.213275 -89.690826 -177.819994 -18.41007 -98.030992 -16.968828 -30.493294 5.899044 15.026963 33.932728 -12.952066 0.057207 0.167838 -0.033283 168.012277 -19.462883 -144.29449 145.100068 -1.520897 178.649734 -12.154446 33.464187 5.210896 -26.974585 80.12264 -10.135955 25.803084 -40.706813 25.778842 0.042711 0.000704 0.032033 -47.802354 -59.160121 -43.907617 -2.44217 72.501932 -0.592091 -62.58853 -20.915938 19.80511 179.792594 75.75015 0.159859 -136.18764 72.56229 -0.0 31.464446 37.014034 -74.019753 25.75416 -18.340882 62.258949
